<?xml version="1.0" standalone="no"?>
<svg viewBox="0 0 200 200" xmlns="http://www.w3.org/2000/svg">
  <path fill="#8A3FFC" d="M37.5,-66.2C49.6,-58,61.1,-49.9,70,-38.9C78.9,-27.9,85.2,-14,86.5,0.8C87.9,15.5,84.3,31.1,75.9,42.9C67.5,54.7,54.2,62.8,40.7,67.7C27.3,72.6,13.6,74.4,-1.5,77C-16.6,79.6,-33.3,83,-46.5,77.9C-59.7,72.9,-69.6,59.4,-77,45C-84.4,30.6,-89.4,15.3,-90.3,-0.5C-91.2,-16.3,-88.1,-32.7,-80.5,-46.8C-72.9,-60.9,-60.9,-72.7,-46.7,-79.8C-32.6,-86.9,-16.3,-89.2,-1.8,-86.1C12.7,-83,25.4,-74.5,37.5,-66.2Z" transform="translate(100 100)" />
</svg>
